<?xml version="1.0" encoding="UTF-8" standalone="no"?>
<!-- Created with Inkscape (http://www.inkscape.org/) -->

<svg
   xmlns:dc="http://purl.org/dc/elements/1.1/"
   xmlns:cc="http://creativecommons.org/ns#"
   xmlns:rdf="http://www.w3.org/1999/02/22-rdf-syntax-ns#"
   xmlns:svg="http://www.w3.org/2000/svg"
   xmlns="http://www.w3.org/2000/svg"
   xmlns:sodipodi="http://sodipodi.sourceforge.net/DTD/sodipodi-0.dtd"
   xmlns:inkscape="http://www.inkscape.org/namespaces/inkscape"
   width="210mm"
   height="297mm"
   viewBox="0 0 210 297"
   version="1.1"
   id="svg1057"
   inkscape:version="0.92.5 (2060ec1f9f, 2020-04-08)"
   sodipodi:docname="btnImg.svg">
  <defs
     id="defs1051" />
  <sodipodi:namedview
     id="base"
     pagecolor="#ffffff"
     bordercolor="#666666"
     borderopacity="1.0"
     inkscape:pageopacity="0.0"
     inkscape:pageshadow="2"
     inkscape:zoom="0.49497475"
     inkscape:cx="363.31306"
     inkscape:cy="679.7936"
     inkscape:document-units="mm"
     inkscape:current-layer="layer1"
     showgrid="false"
     inkscape:window-width="1920"
     inkscape:window-height="1016"
     inkscape:window-x="0"
     inkscape:window-y="0"
     inkscape:window-maximized="1" />
  <metadata
     id="metadata1054">
    <rdf:RDF>
      <cc:Work
         rdf:about="">
        <dc:format>image/svg+xml</dc:format>
        <dc:type
           rdf:resource="http://purl.org/dc/dcmitype/StillImage" />
        <dc:title></dc:title>
      </cc:Work>
    </rdf:RDF>
  </metadata>
  <g
     inkscape:label="Layer 1"
     inkscape:groupmode="layer"
     id="layer1">
    <path
       d="m 109.2077,94.499728 c 2.30517,0.002 4.17412,1.34424 4.17677,3.002754 -0.003,1.657241 -1.8716,3.000858 -4.17677,3.002118 -2.3052,-0.002 -4.17324,-1.345514 -4.17677,-3.002118 0.003,-1.657878 1.87157,-3.00021 4.17677,-3.002754 m 0,7.713642 c 3.61396,-0.004 6.54303,-2.10892 6.54832,-4.707072 -0.003,-2.600054 -2.93258,-4.707709 -6.54832,-4.711525 -3.61662,0.0032 -6.54835,2.110834 -6.55276,4.711525 0.005,2.599422 2.93702,4.704532 6.55276,4.707072"
       style="fill:#337cc0;fill-opacity:1;fill-rule:nonzero;stroke:none;stroke-width:0.35277775"
       id="path264"
       inkscape:connector-curvature="0" />
    <path
       d="M 94.8003,137.03737 H 93.713383 V 124.9765 c 0.0017,-1.07014 0.739532,-1.93705 1.649955,-1.93925 h 7.433132 c 0.47914,-0.002 0.93779,-0.22587 1.27586,-0.62424 0.33931,-0.39691 0.52885,-0.93708 0.52637,-1.50067 l -0.0106,-7.74748 c -0.007,-1.64174 0.54564,-3.21843 1.53372,-4.37699 0.98254,-1.16661 2.32051,-1.82155 3.71565,-1.81938 h 0.54937 c 0.59161,-0.004 1.07509,0.55481 1.08193,1.25069 v 16.40792 c -0.002,1.82667 -1.25967,3.30688 -2.81267,3.30833 H 98.487373 c -0.789246,0 -1.429333,0.75288 -1.429333,1.68194 v 9.3556 h 1.626325 v 0.0269 H 117.7815 c 0.84518,-7.3e-4 1.5294,-0.80627 1.53063,-1.79963 v -5.34115 c -0.002,-1.53576 -1.05956,-2.77985 -2.36523,-2.78203 h -2.21982 v 1.96263 h 2.21982 c 0.38405,0 0.6954,0.36621 0.6954,0.81793 v 7.3e-4 5.17813 H 98.725379 v -7.14003 h 9.933881 c 2.47398,-0.002 4.47815,-2.36102 4.48063,-5.27024 v -16.4101 c -0.009,-1.77843 -1.23792,-3.21405 -2.75052,-3.21112 h -0.55122 c -1.83825,-0.002 -3.60068,0.86109 -4.89515,2.39683 -1.3007,1.52771 -2.02843,3.60366 -2.01973,5.76583 l 0.0106,7.74746 h 0.834 l -0.96887,0.16017 h -7.433756 c -1.831417,0.004 -3.314815,1.74848 -3.31855,3.90189 v 14.0257 h 2.754894 z"
       style="fill:#337cc0;fill-opacity:1;fill-rule:nonzero;stroke:none;stroke-width:0.35277778"
       id="path268"
       inkscape:connector-curvature="0" />
    <path
       d="m 95.75423,102.18343 c -0.513586,0.51858 -0.823315,1.34535 -0.837126,2.2321 0.0138,0.88767 0.32354,1.71352 0.837126,2.2321 0.295262,0.36909 0.339979,0.46136 0.339979,0.68743 -6.65e-4,0.57025 0.3288,1.03346 0.735195,1.03346 h 0.0013 c 0.406395,0 0.736512,-0.46229 0.736512,-1.03346 -0.01324,-0.88767 -0.322883,-1.71444 -0.836468,-2.23301 -0.295262,-0.36818 -0.340635,-0.46137 -0.340635,-0.68652 0,-0.22516 0.04537,-0.32019 0.340635,-0.68467 0.513585,-0.52042 0.823314,-1.34719 0.836468,-2.23578 -0.01379,-0.88675 -0.32354,-1.713508 -0.836468,-2.231167 -0.295262,-0.36817 -0.340635,-0.453985 -0.340635,-0.683741 0,-0.229757 0.04537,-0.31558 0.33932,-0.678213 0.513584,-0.516729 0.823971,-1.342577 0.83778,-2.229325 -7.52e-4,-0.570247 -0.330116,-1.032538 -0.73651,-1.033462 -0.407056,0 -0.736512,0.462291 -0.736512,1.033462 0,0.226984 -0.04472,0.315575 -0.338665,0.680054 -0.513584,0.514886 -0.823971,1.340733 -0.838439,2.227484 0.0138,0.886742 0.32354,1.712588 0.837125,2.232078 0.295262,0.36817 0.339979,0.45399 0.339979,0.68283 0,0.22884 -0.04472,0.32019 -0.339979,0.68835"
       style="fill:#337cc0;fill-opacity:1;fill-rule:nonzero;stroke:none;stroke-width:0.35277775"
       id="path276"
       inkscape:connector-curvature="0" />
    <path
       d="m 82.431961,102.63585 c -0.678397,0.59179 -1.087523,1.5353 -1.105763,2.54726 0.01821,1.01299 0.427366,1.95543 1.105763,2.54725 0.390015,0.42121 0.449082,0.52649 0.449082,0.78451 -9.05e-4,0.65074 0.434314,1.17937 0.971128,1.17937 h 0.0018 c 0.536814,0 0.972866,-0.52758 0.972866,-1.17937 -0.01747,-1.01303 -0.426498,-1.95654 -1.104895,-2.54833 -0.390015,-0.42017 -0.449951,-0.52652 -0.449951,-0.78343 0,-0.25701 0.05993,-0.36542 0.449951,-0.78134 0.678397,-0.59391 1.087523,-1.53742 1.104895,-2.55151 -0.01821,-1.01192 -0.427365,-1.955431 -1.104895,-2.546181 -0.390015,-0.42016 -0.449951,-0.51809 -0.449951,-0.78029 0,-0.26208 0.05993,-0.36013 0.448211,-0.77397 0.678398,-0.589697 1.088392,-1.532127 1.106632,-2.544084 -9.06e-4,-0.650776 -0.43605,-1.178335 -0.972865,-1.179379 -0.53768,0 -0.972863,0.527558 -0.972863,1.179379 0,0.259092 -0.05908,0.360137 -0.447343,0.776057 -0.6784,0.58758 -1.088393,1.530047 -1.107503,2.541997 0.01821,1.01195 0.427366,1.954421 1.105765,2.547251 0.390012,0.42017 0.449081,0.5181 0.449081,0.77922 0,0.26119 -0.05908,0.36543 -0.449081,0.78559"
       style="fill:#337cc0;fill-opacity:1;fill-rule:nonzero;stroke:none;stroke-width:0.35277775"
       id="path276-7"
       inkscape:connector-curvature="0" />
    <path
       d="m 89.045198,94.273086 c -0.641772,0.574053 -1.028809,1.489281 -1.046065,2.470891 0.01724,0.982637 0.404293,1.896847 1.046065,2.470897 0.368957,0.40858 0.424835,0.51073 0.424835,0.76098 -8.2e-4,0.631246 0.410866,1.144036 0.918697,1.144036 h 0.0016 c 0.507831,0 0.92034,-0.51175 0.92034,-1.144036 -0.01654,-0.98265 -0.403471,-1.89785 -1.045243,-2.47194 -0.368956,-0.40753 -0.425657,-0.510687 -0.425657,-0.759937 0,-0.24929 0.0567,-0.35446 0.425657,-0.75791 0.641772,-0.576109 1.02881,-1.491334 1.045243,-2.474979 -0.01724,-0.981617 -0.404291,-1.896842 -1.045243,-2.469881 -0.368956,-0.407566 -0.425657,-0.502566 -0.425657,-0.756902 0,-0.254222 0.0567,-0.349338 0.424013,-0.750763 0.641772,-0.572027 1.029629,-1.48621 1.046884,-2.467827 -8.19e-4,-0.631268 -0.412508,-1.143011 -0.920339,-1.144024 -0.508652,0 -0.92034,0.511744 -0.92034,1.144024 0,0.251326 -0.05588,0.349336 -0.423191,0.752818 -0.641773,0.569971 -1.029631,1.484153 -1.047709,2.465772 0.01724,0.981617 0.404293,1.895828 1.046065,2.470896 0.368957,0.407563 0.424835,0.502564 0.424835,0.755887 0,0.253353 -0.05588,0.354434 -0.424835,0.761998"
       style="fill:#337cc0;fill-opacity:1;fill-rule:nonzero;stroke:none;stroke-width:0.35277775"
       id="path276-5"
       inkscape:connector-curvature="0" />
  </g>
</svg>
