<?xml version="1.0" encoding="UTF-8" standalone="no"?>
<!-- Created with Inkscape (http://www.inkscape.org/) -->

<svg
   xmlns:dc="http://purl.org/dc/elements/1.1/"
   xmlns:cc="http://creativecommons.org/ns#"
   xmlns:rdf="http://www.w3.org/1999/02/22-rdf-syntax-ns#"
   xmlns:svg="http://www.w3.org/2000/svg"
   xmlns="http://www.w3.org/2000/svg"
   xmlns:sodipodi="http://sodipodi.sourceforge.net/DTD/sodipodi-0.dtd"
   xmlns:inkscape="http://www.inkscape.org/namespaces/inkscape"
   width="210mm"
   height="297mm"
   viewBox="0 0 210 297"
   version="1.1"
   id="svg900"
   inkscape:version="0.92.5 (2060ec1f9f, 2020-04-08)"
   sodipodi:docname="inaBtnImg.svg">
  <defs
     id="defs894" />
  <sodipodi:namedview
     id="base"
     pagecolor="#ffffff"
     bordercolor="#666666"
     borderopacity="1.0"
     inkscape:pageopacity="0.0"
     inkscape:pageshadow="2"
     inkscape:zoom="0.7"
     inkscape:cx="1004.3488"
     inkscape:cy="575.1569"
     inkscape:document-units="mm"
     inkscape:current-layer="layer1"
     showgrid="false"
     inkscape:window-width="1920"
     inkscape:window-height="1016"
     inkscape:window-x="0"
     inkscape:window-y="0"
     inkscape:window-maximized="1" />
  <metadata
     id="metadata897">
    <rdf:RDF>
      <cc:Work
         rdf:about="">
        <dc:format>image/svg+xml</dc:format>
        <dc:type
           rdf:resource="http://purl.org/dc/dcmitype/StillImage" />
        <dc:title></dc:title>
      </cc:Work>
    </rdf:RDF>
  </metadata>
  <g
     inkscape:label="Layer 1"
     inkscape:groupmode="layer"
     id="layer1">
    <path
       d="m 103.43719,162.13636 h -0.61701 v -5.82084 c 0.001,-0.51646 0.41981,-0.93486 0.93663,-0.93592 h 4.21957 c 0.27164,-7.1e-4 0.53199,-0.109 0.72426,-0.30127 0.19261,-0.19156 0.30021,-0.45226 0.2988,-0.72425 l -0.006,-3.73909 c -0.004,-0.79234 0.30974,-1.55328 0.87066,-2.11244 0.55738,-0.56303 1.31727,-0.87912 2.10925,-0.87806 h 0.31186 c 0.33584,-0.002 0.61031,0.26776 0.61419,0.6036 v 7.91881 c -0.001,0.88159 -0.71544,1.59596 -1.59668,1.59667 h -5.7725 c -0.44803,0 -0.81139,0.36336 -0.81139,0.81174 v 4.5152 h 0.92322 v 0.013 h 10.84051 c 0.48013,-3.4e-4 0.86854,-0.38911 0.86924,-0.86854 v -2.57774 c -0.001,-0.74119 -0.60183,-1.34162 -1.34267,-1.34268 h -1.26047 v 0.94721 h 1.26047 c 0.21802,0 0.39476,0.17674 0.39476,0.39476 v 3.4e-4 2.49908 h -10.73855 v -3.44593 h 5.63915 c 1.40405,-0.001 2.54211,-1.13947 2.54353,-2.54353 v -7.91985 c -0.005,-0.85831 -0.70274,-1.55116 -1.5614,-1.54975 h -0.31291 c -1.04352,-0.001 -2.04435,0.41557 -2.77883,1.15676 -0.73837,0.7373 -1.15147,1.73919 -1.14653,2.78271 l 0.006,3.73909 h 0.47343 l -0.54998,0.0773 h -4.21993 c -1.03964,0.002 -1.88207,0.84384 -1.88383,1.88313 v 6.7691 h 1.56386 z"
       style="fill:#dddfe6;fill-opacity:1;fill-rule:nonzero;stroke:none;stroke-width:0.35277775"
       id="path328"
       inkscape:connector-curvature="0" />
    <path
       d="m 111.51909,140.91904 c 0.91899,0.001 1.66441,0.74542 1.66511,1.66511 -7e-4,0.91899 -0.74612,1.66406 -1.66511,1.66476 -0.91899,-0.001 -1.6637,-0.74612 -1.66511,-1.66476 0.002,-0.91934 0.74648,-1.6637 1.66511,-1.66511 m 0,4.27743 c 1.4411,-0.002 2.60879,-1.16946 2.61056,-2.6102 -0.001,-1.4418 -1.16876,-2.61056 -2.61056,-2.61267 -1.4418,0.002 -2.61056,1.17051 -2.61232,2.61267 0.002,1.44145 1.17087,2.60879 2.61232,2.6102"
       style="fill:#dddfe6;fill-opacity:1;fill-rule:nonzero;stroke:none;stroke-width:0.35277775"
       id="path324"
       inkscape:connector-curvature="0" />
    <path
       d="m 106.31267,145.85111 c -0.27517,0.19826 -0.44133,0.5147 -0.44873,0.85372 0.007,0.33937 0.17321,0.65546 0.44873,0.85337 0.1584,0.14111 0.18274,0.17639 0.18274,0.26317 0,0.21837 0.17709,0.39511 0.39511,0.39511 0.21802,-3.4e-4 0.39476,-0.17709 0.39511,-0.39511 -0.007,-0.33937 -0.17357,-0.65581 -0.44909,-0.85443 -0.15839,-0.14111 -0.18238,-0.17427 -0.18238,-0.26211 0,-0.0878 0.024,-0.12206 0.18238,-0.26247 0.27552,-0.19826 0.44168,-0.51435 0.44909,-0.85372 -0.007,-0.33902 -0.17357,-0.65546 -0.44909,-0.85337 -0.15839,-0.14111 -0.18238,-0.17392 -0.18238,-0.26141 0,-0.0875 0.024,-0.12029 0.18168,-0.25929 0.27517,-0.19755 0.44062,-0.51364 0.44732,-0.85231 0,-0.21802 -0.17639,-0.39511 -0.3944,-0.39511 h -7.1e-4 c -0.21837,0 -0.39511,0.17674 -0.39511,0.39511 0,0.0864 -0.024,0.12065 -0.18203,0.25964 -0.27517,0.19756 -0.44168,0.51294 -0.44909,0.85161 0.007,0.33937 0.17321,0.65511 0.44873,0.85337 0.1584,0.14111 0.18239,0.17392 0.18239,0.26141 0,0.0875 -0.0219,0.12312 -0.18027,0.26282"
       style="fill:#dddfe6;fill-opacity:1;fill-rule:nonzero;stroke:none;stroke-width:0.35277775"
       id="path340"
       inkscape:connector-curvature="0" />
    <path
       d="m 103.3727,144.18067 c -0.27516,0.19826 -0.44132,0.5147 -0.44873,0.85372 0.007,0.33937 0.17321,0.65546 0.44873,0.85337 0.1584,0.14111 0.18274,0.17639 0.18274,0.26317 0,0.21837 0.1771,0.39511 0.39511,0.39511 0.21802,-3.4e-4 0.39476,-0.17709 0.39511,-0.39511 -0.007,-0.33937 -0.17356,-0.65581 -0.44908,-0.85442 -0.1584,-0.14112 -0.18239,-0.17428 -0.18239,-0.26212 0,-0.0878 0.024,-0.12206 0.18239,-0.26247 0.27552,-0.19826 0.44168,-0.51435 0.44908,-0.85372 -0.007,-0.33902 -0.17356,-0.65546 -0.44908,-0.85337 -0.1584,-0.14111 -0.18239,-0.17392 -0.18239,-0.2614 0,-0.0875 0.024,-0.1203 0.18168,-0.2593 0.27517,-0.19755 0.44062,-0.51364 0.44733,-0.85231 0,-0.21801 -0.17639,-0.39511 -0.39441,-0.39511 h -7.1e-4 c -0.21837,0 -0.39511,0.17674 -0.39511,0.39511 0,0.0864 -0.024,0.12065 -0.18203,0.25965 -0.27517,0.19755 -0.44168,0.51294 -0.44909,0.8516 0.007,0.33937 0.17322,0.65511 0.44874,0.85337 0.15839,0.14111 0.18238,0.17392 0.18238,0.26141 0,0.0875 -0.0219,0.12312 -0.18027,0.26282"
       style="fill:#dddfe6;fill-opacity:1;fill-rule:nonzero;stroke:none;stroke-width:0.35277775"
       id="path340-3"
       inkscape:connector-curvature="0" />
    <path
       d="m 100.43274,146.65291 c -0.27517,0.19826 -0.441326,0.51471 -0.448734,0.85372 0.0071,0.33938 0.173214,0.65547 0.448734,0.85337 0.1584,0.14112 0.18274,0.17639 0.18274,0.26318 0,0.21837 0.17709,0.39511 0.39511,0.39511 0.21802,-3.5e-4 0.39476,-0.1771 0.39511,-0.39511 -0.007,-0.33938 -0.17357,-0.65582 -0.44909,-0.85443 -0.15839,-0.14111 -0.18238,-0.17427 -0.18238,-0.26212 0,-0.0878 0.024,-0.12206 0.18238,-0.26246 0.27552,-0.19826 0.44168,-0.51435 0.44909,-0.85372 -0.007,-0.33902 -0.17357,-0.65547 -0.44909,-0.85337 -0.15839,-0.14111 -0.18238,-0.17392 -0.18238,-0.26141 0,-0.0875 0.024,-0.1203 0.18168,-0.25929 0.27517,-0.19756 0.44062,-0.51365 0.44732,-0.85231 0,-0.21802 -0.17639,-0.39512 -0.3944,-0.39512 h -7.1e-4 c -0.21837,0 -0.39511,0.17675 -0.39511,0.39512 0,0.0864 -0.024,0.12065 -0.18203,0.25964 -0.27517,0.19756 -0.441683,0.51294 -0.449091,0.85161 0.0071,0.33937 0.173211,0.6551 0.448731,0.85336 0.1584,0.14112 0.18239,0.17392 0.18239,0.26141 0,0.0875 -0.0219,0.12312 -0.18027,0.26282"
       style="fill:#dddfe6;fill-opacity:1;fill-rule:nonzero;stroke:none;stroke-width:0.35277775"
       id="path340-6"
       inkscape:connector-curvature="0" />
  </g>
</svg>
