<?xml version="1.0" encoding="UTF-8" standalone="no"?>
<!-- Created with Inkscape (http://www.inkscape.org/) -->

<svg
   xmlns:dc="http://purl.org/dc/elements/1.1/"
   xmlns:cc="http://creativecommons.org/ns#"
   xmlns:rdf="http://www.w3.org/1999/02/22-rdf-syntax-ns#"
   xmlns:svg="http://www.w3.org/2000/svg"
   xmlns="http://www.w3.org/2000/svg"
   xmlns:sodipodi="http://sodipodi.sourceforge.net/DTD/sodipodi-0.dtd"
   xmlns:inkscape="http://www.inkscape.org/namespaces/inkscape"
   width="210mm"
   height="297mm"
   viewBox="0 0 210 297"
   version="1.1"
   id="svg1057"
   inkscape:version="0.92.5 (2060ec1f9f, 2020-04-08)"
   sodipodi:docname="pshyhoICON.svg">
  <defs
     id="defs1051" />
  <sodipodi:namedview
     id="base"
     pagecolor="#ffffff"
     bordercolor="#666666"
     borderopacity="1.0"
     inkscape:pageopacity="0.0"
     inkscape:pageshadow="2"
     inkscape:zoom="0.49497475"
     inkscape:cx="361.55413"
     inkscape:cy="588.32388"
     inkscape:document-units="mm"
     inkscape:current-layer="layer1"
     showgrid="false"
     inkscape:window-width="1920"
     inkscape:window-height="1016"
     inkscape:window-x="0"
     inkscape:window-y="0"
     inkscape:window-maximized="1" />
  <metadata
     id="metadata1054">
    <rdf:RDF>
      <cc:Work
         rdf:about="">
        <dc:format>image/svg+xml</dc:format>
        <dc:type
           rdf:resource="http://purl.org/dc/dcmitype/StillImage" />
        <dc:title></dc:title>
      </cc:Work>
    </rdf:RDF>
  </metadata>
  <g
     inkscape:label="Layer 1"
     inkscape:groupmode="layer"
     id="layer1">
    <path
       d="m 110.56098,89.362899 c 3.04717,0.0033 5.51769,2.255893 5.5212,5.039196 -0.003,2.781167 -2.47403,5.035996 -5.5212,5.038126 -3.04721,-0.003 -5.51654,-2.258028 -5.52121,-5.038126 0.003,-2.782235 2.474,-5.034926 5.52121,-5.039196 m 0,12.944961 c 4.77723,-0.006 8.64912,-3.539173 8.65612,-7.899361 -0.003,-4.363387 -3.87653,-7.900434 -8.65612,-7.90684 -4.78076,0.0054 -8.65616,3.542385 -8.66199,7.90684 0.007,4.362321 3.88239,7.895091 8.66199,7.899361"
       style="fill:#337cc0;fill-opacity:1;fill-rule:nonzero;stroke:none;stroke-width:0.35277775"
       id="path264"
       inkscape:connector-curvature="0" />
    <path
       d="M 92.494667,147.10115 H 91.12427 v -15.74337 c 0.0022,-1.39688 0.93241,-2.52848 2.080282,-2.53135 h 9.371778 c 0.6041,-0.002 1.18237,-0.29483 1.60861,-0.81483 0.42781,-0.5181 0.66679,-1.22321 0.66366,-1.95888 l -0.0133,-10.11297 c -0.009,-2.14301 0.68794,-4.2011 1.93373,-5.71341 1.23878,-1.5228 2.92572,-2.37772 4.68473,-2.37488 h 0.69265 c 0.74591,-0.005 1.35549,0.7242 1.36411,1.63256 v 21.41767 c -0.002,2.38441 -1.58821,4.31656 -3.54625,4.31846 h -12.8209 c -0.99509,0 -1.80212,0.98276 -1.80212,2.19548 v 12.21211 h 2.05049 v 0.0352 h 24.07788 c 1.06561,-9.5e-4 1.92828,-1.05244 1.92983,-2.34911 v -6.97194 c -0.002,-2.00466 -1.3359,-3.6286 -2.98211,-3.63146 h -2.79876 v 2.56188 h 2.79876 c 0.48423,0 0.87678,0.47802 0.87678,1.06766 v 9.5e-4 6.75916 H 97.44345 v -9.32007 h 12.52475 c 3.11922,-0.003 5.6461,-3.08191 5.64923,-6.87938 v -21.42052 c -0.0111,-2.32144 -1.56078,-4.19539 -3.46789,-4.19157 h -0.69498 c -2.31769,-0.003 -4.53978,1.124 -6.17186,3.12864 -1.63994,1.99417 -2.55747,4.70395 -2.5465,7.52629 l 0.0133,10.11297 h 1.05152 l -1.22156,0.20907 h -9.372563 c -2.30907,0.005 -4.179354,2.28233 -4.184063,5.09323 v 18.30812 h 3.4734 z"
       style="fill:#337cc0;fill-opacity:1;fill-rule:nonzero;stroke:none;stroke-width:0.35277778"
       id="path268"
       inkscape:connector-curvature="0" />
    <path
       d="m 94.63037,103.82292 c -0.75165,0.76933 -1.204949,1.99588 -1.225162,3.3114 0.02019,1.3169 0.473512,2.54206 1.225162,3.3114 0.432125,0.54756 0.49757,0.68445 0.49757,1.01984 -9.73e-4,0.84598 0.48121,1.53317 1.075982,1.53317 h 0.0019 c 0.594773,0 1.07791,-0.68582 1.07791,-1.53317 -0.01937,-1.3169 -0.472551,-2.54345 -1.224199,-3.31277 -0.432126,-0.5462 -0.498531,-0.68445 -0.498531,-1.01847 0,-0.33403 0.0664,-0.47502 0.498531,-1.01573 0.751648,-0.77207 1.204948,-1.99861 1.224199,-3.31687 -0.02018,-1.31552 -0.473512,-2.54206 -1.224199,-3.310022 -0.432126,-0.546195 -0.498531,-0.673502 -0.498531,-1.014362 0,-0.340853 0.0664,-0.468167 0.496607,-1.00615 0.751646,-0.766589 1.205908,-1.991764 1.226118,-3.307289 -0.0011,-0.845984 -0.483136,-1.53181 -1.077907,-1.53318 -0.595739,0 -1.077909,0.685827 -1.077909,1.53318 0,0.33674 -0.06545,0.468167 -0.495647,1.008886 -0.751648,0.763853 -1.205909,1.989032 -1.227084,3.304553 0.02019,1.315522 0.473511,2.540704 1.225161,3.311384 0.432125,0.5462 0.49757,0.67351 0.49757,1.013 0,0.33949 -0.06545,0.47501 -0.49757,1.0212"
       style="fill:#337cc0;fill-opacity:1;fill-rule:nonzero;stroke:none;stroke-width:0.35277775"
       id="path276"
       inkscape:connector-curvature="0" />
    <path
       d="m 79.725232,104.78658 c -0.824901,0.7836 -1.322379,2.03291 -1.344558,3.37285 0.02215,1.34132 0.519657,2.58921 1.344558,3.37285 0.474239,0.55773 0.546062,0.69713 0.546062,1.03877 -0.0011,0.86166 0.528106,1.56162 1.180847,1.56162 h 0.0021 c 0.652741,0 1.182958,-0.69858 1.182958,-1.56162 -0.02125,-1.34136 -0.518601,-2.59067 -1.343501,-3.37427 -0.474239,-0.55635 -0.547119,-0.69717 -0.547119,-1.03735 0,-0.3403 0.07287,-0.48385 0.547119,-1.03457 0.8249,-0.78641 1.322379,-2.03572 1.343501,-3.37847 -0.02215,-1.3399 -0.519655,-2.58921 -1.343501,-3.37142 -0.474239,-0.556338 -0.547119,-0.686019 -0.547119,-1.033197 0,-0.347017 0.07287,-0.476855 0.545005,-1.024814 0.8249,-0.780833 1.323433,-2.028721 1.345612,-3.368659 -0.0011,-0.861699 -0.530217,-1.560245 -1.182958,-1.561628 -0.653794,0 -1.182957,0.698545 -1.182957,1.561628 0,0.343067 -0.07183,0.476856 -0.543948,1.027581 -0.824904,0.778028 -1.323436,2.025955 -1.346672,3.365892 0.02215,1.339937 0.519657,2.587867 1.344558,3.372847 0.474238,0.55634 0.546062,0.68602 0.546062,1.03177 0,0.34584 -0.07183,0.48386 -0.546062,1.04019"
       style="fill:#337cc0;fill-opacity:1;fill-rule:nonzero;stroke:none;stroke-width:0.35277775"
       id="path276-7"
       inkscape:connector-curvature="0" />
    <path
       d="m 86.58849,95.67679 c -0.861523,0.82643 -1.381087,2.144026 -1.404251,3.557201 0.02314,1.414639 0.542728,2.730769 1.404251,3.557199 0.495293,0.58821 0.570304,0.73527 0.570304,1.09554 -0.0011,0.90876 0.551552,1.64699 1.233271,1.64699 h 0.0022 c 0.681719,0 1.235477,-0.73673 1.235477,-1.64699 -0.0222,-1.41467 -0.541625,-2.73222 -1.403148,-3.5587 -0.495292,-0.586701 -0.571408,-0.735221 -0.571408,-1.094039 0,-0.3589 0.07611,-0.510298 0.571408,-1.091124 0.861523,-0.82939 1.381087,-2.146984 1.403148,-3.563079 -0.02314,-1.413176 -0.542726,-2.730771 -1.403148,-3.555741 -0.495292,-0.586748 -0.571408,-0.723513 -0.571408,-1.089666 0,-0.365988 0.07611,-0.502921 0.569201,-1.080829 0.861523,-0.823512 1.382187,-2.139607 1.405351,-3.552782 -0.0011,-0.908799 -0.553757,-1.645525 -1.235476,-1.646984 -0.68282,0 -1.235476,0.736727 -1.235476,1.646984 0,0.361818 -0.07502,0.502918 -0.568097,1.083787 -0.861525,0.820553 -1.38219,2.136646 -1.406458,3.549824 0.02314,1.413175 0.542728,2.729311 1.404251,3.557201 0.495293,0.586745 0.570304,0.723511 0.570304,1.088206 0,0.364737 -0.07502,0.510257 -0.570304,1.097002"
       style="fill:#337cc0;fill-opacity:1;fill-rule:nonzero;stroke:none;stroke-width:0.35277775"
       id="path276-5"
       inkscape:connector-curvature="0" />
  </g>
</svg>
