<?xml version="1.0" encoding="UTF-8" standalone="no"?>
<!-- Created with Inkscape (http://www.inkscape.org/) -->

<svg
   xmlns:dc="http://purl.org/dc/elements/1.1/"
   xmlns:cc="http://creativecommons.org/ns#"
   xmlns:rdf="http://www.w3.org/1999/02/22-rdf-syntax-ns#"
   xmlns:svg="http://www.w3.org/2000/svg"
   xmlns="http://www.w3.org/2000/svg"
   xmlns:sodipodi="http://sodipodi.sourceforge.net/DTD/sodipodi-0.dtd"
   xmlns:inkscape="http://www.inkscape.org/namespaces/inkscape"
   width="210mm"
   height="297mm"
   viewBox="0 0 210 297"
   version="1.1"
   id="svg930"
   inkscape:version="0.92.5 (2060ec1f9f, 2020-04-08)"
   sodipodi:docname="Pshyatri.svg">
  <defs
     id="defs924" />
  <sodipodi:namedview
     id="base"
     pagecolor="#ffffff"
     bordercolor="#666666"
     borderopacity="1.0"
     inkscape:pageopacity="0.0"
     inkscape:pageshadow="2"
     inkscape:zoom="0.35"
     inkscape:cx="-155.23142"
     inkscape:cy="776.85465"
     inkscape:document-units="mm"
     inkscape:current-layer="layer1"
     showgrid="false"
     inkscape:window-width="1920"
     inkscape:window-height="1016"
     inkscape:window-x="0"
     inkscape:window-y="0"
     inkscape:window-maximized="1" />
  <metadata
     id="metadata927">
    <rdf:RDF>
      <cc:Work
         rdf:about="">
        <dc:format>image/svg+xml</dc:format>
        <dc:type
           rdf:resource="http://purl.org/dc/dcmitype/StillImage" />
        <dc:title></dc:title>
      </cc:Work>
    </rdf:RDF>
  </metadata>
  <g
     inkscape:label="Layer 1"
     inkscape:groupmode="layer"
     id="layer1">
    <path
       d="m 25.95921,286.22434 h -8.002752 l 0.01872,-56.35549 c 0.01872,-5.00176 5.448603,-9.05293 12.148675,-9.0611 h 54.709188 c 3.523827,-0.004 6.901325,-1.05172 9.393248,-2.91203 2.495656,-1.85758 3.893487,-4.3817 3.875193,-7.01234 l -0.07673,-36.18715 c -0.05096,-7.66795 4.014178,-15.03267 11.285068,-20.4497 7.23066,-5.44431 17.08133,-8.50383 27.35279,-8.49291 h 4.02518 0.019 c 4.35449,-0.0203 7.91492,2.58967 7.9625,5.84314 v 76.64946 c -0.0148,8.53389 -9.2725,15.4479 -20.70397,15.45884 H 53.100269 c -5.807205,0.002 -10.512993,3.51572 -10.520303,7.85095 v 43.71852 h 11.973022 v 0.12302 H 195.12259 c 6.22069,-0.002 11.25947,-3.7643 11.26313,-8.40823 v -24.94884 c -0.0148,-7.17351 -7.80151,-12.98115 -17.41067,-12.99209 h -16.33849 v 9.16768 h 16.33849 c 2.83226,0 5.12294,1.71281 5.12294,3.82166 v 24.1949 H 54.856699 v -33.37075 h 73.118871 c 18.20837,-0.0203 32.96242,-11.03344 32.98072,-24.62649 v -76.65766 c -0.0622,-8.30992 -9.11517,-15.01631 -20.24656,-15.00267 h -0.0332 -4.02517 c -13.5316,-0.008 -26.50361,4.02386 -36.02858,11.19735 -9.576227,7.13801 -14.929688,16.83288 -14.867486,26.93482 l 0.08074,36.18988 h 6.140214 l -7.13187,0.74849 H 30.124332 c -13.476964,0.0142 -24.40345,8.16511 -24.4290583,18.22878 v 65.5204 H 25.974758 Z"
       style="fill:#337cc0;fill-opacity:1;fill-rule:nonzero;stroke:none;stroke-width:0.35277775"
       id="path388"
       inkscape:connector-curvature="0" />
    <path
       d="m 132.48524,40.063924 c 11.30707,0.01614 20.47227,13.676017 20.4827,30.523945 -0.01,16.853122 -9.17563,30.513611 -20.4827,30.534301 -11.30372,-0.0264 -20.46538,-13.681179 -20.4827,-30.534301 0.0197,-16.842751 9.17898,-30.498071 20.4827,-30.523945 m 0,78.433976 c 17.73661,-0.0367 32.10921,-21.463522 32.12308,-47.899675 -0.01,-26.436154 -14.38647,-47.868624 -32.12308,-47.899676 -17.74015,0.0264 -32.11619,21.458359 -32.13706,47.899676 0.0197,26.441313 14.39691,47.868625 32.13706,47.899675"
       style="fill:#337cc0;fill-opacity:1;fill-rule:nonzero;stroke:none;stroke-width:0.35277769"
       id="path384"
       inkscape:connector-curvature="0" />
    <path
       d="m 73.15094,142.32472 c 2.158699,0 3.90967,-2.23922 3.90967,-4.99986 -0.06966,-4.29633 -1.714668,-8.29979 -4.440271,-10.81044 -1.569456,-1.78566 -1.806828,-2.20708 -1.806828,-3.31777 0,-1.11068 0.237404,-1.54639 1.806828,-3.32133 2.725603,-2.51066 4.37046,-6.51055 4.440271,-10.81044 -0.07283,-4.28917 -1.717462,-8.28906 -4.440271,-10.796141 -1.569456,-1.764236 -1.806828,-2.19994 -1.806828,-3.307052 0,-1.107113 0.237404,-1.521386 1.798445,-3.282059 2.725611,-2.496365 4.373254,-6.492686 4.443074,-10.781857 0,-2.764212 -1.75098,-5.003443 -3.909679,-5.003443 -2.158699,0 -3.909679,2.239231 -3.909679,5.003443 0,1.089254 -0.234554,1.528532 -1.801247,3.285632 -2.725603,2.496356 -4.373246,6.489112 -4.44586,10.778284 0.0752,4.289171 1.720257,8.292643 4.443074,10.799713 1.569456,1.76424 1.804033,2.19994 1.804033,3.30348 0,1.11069 -0.234554,1.5571 -1.806828,3.32849 -2.722808,2.50707 -4.367665,6.51054 -4.440279,10.80328 0.07283,4.29275 1.717471,8.29265 4.440279,10.79972 1.572251,1.78567 1.806828,2.21423 1.806828,3.32849 0,2.76064 1.75098,4.99986 3.909679,4.99986 z"
       style="fill:#337cc0;fill-opacity:1;fill-rule:nonzero;stroke:none;stroke-width:0.35277781"
       id="path392"
       inkscape:connector-curvature="0" />
    <path
       d="m 23.778127,145.63755 c 2.240699,0 4.058191,-2.005 4.058191,-4.47685 -0.07231,-3.8469 -1.77981,-7.43158 -4.608947,-9.6796 -1.629073,-1.59887 -1.875462,-1.97621 -1.875462,-2.97071 0,-0.9945 0.246422,-1.38463 1.875462,-2.97392 2.829137,-2.24801 4.536474,-5.82949 4.608947,-9.67959 -0.07559,-3.84049 -1.782702,-7.42198 -4.608947,-9.6668 -1.629073,-1.57969 -1.875462,-1.96982 -1.875462,-2.96112 0,-0.9913 0.246422,-1.36225 1.866769,-2.93874 2.829136,-2.235227 4.539375,-5.813507 4.611839,-9.654007 0,-2.47506 -1.817484,-4.480053 -4.058191,-4.480053 -2.240699,0 -4.058183,2.004993 -4.058183,4.480053 0,0.975312 -0.243464,1.368639 -1.869668,2.941926 -2.829138,2.235232 -4.539376,5.810323 -4.61474,9.650821 0.07806,3.8405 1.785602,7.42518 4.611839,9.67 1.629073,1.57969 1.872569,1.96981 1.872569,2.95792 0,0.9945 -0.243464,1.39423 -1.875469,2.9803 -2.826237,2.24484 -4.533575,5.82952 -4.608939,9.67321 0.07559,3.84369 1.782702,7.42517 4.608939,9.67001 1.631973,1.59887 1.875469,1.9826 1.875469,2.9803 0,2.47185 1.817484,4.47685 4.058183,4.47685 z"
       style="fill:#337cc0;fill-opacity:1;fill-rule:nonzero;stroke:none;stroke-width:0.35277775"
       id="path392-3"
       inkscape:connector-curvature="0" />
    <path
       d="m 48.513723,112.08872 c 1.994705,0 3.612653,-1.84282 3.612653,-4.11476 -0.06438,-3.53576 -1.584403,-6.83051 -4.102937,-8.896708 -1.450229,-1.469557 -1.669566,-1.816375 -1.669566,-2.730442 0,-0.914067 0.219368,-1.27264 1.669566,-2.733376 2.518534,-2.066203 4.038429,-5.358014 4.102937,-8.896716 -0.0673,-3.52988 -1.586984,-6.821691 -4.102937,-8.884951 -1.450229,-1.451923 -1.669566,-1.810497 -1.669566,-2.721622 0,-0.911126 0.219368,-1.25207 1.661821,-2.701051 2.518533,-2.054446 4.041009,-5.343316 4.105525,-8.873196 0,-2.274878 -1.617955,-4.117707 -3.612653,-4.117707 -1.994699,0 -3.612653,1.842829 -3.612653,4.117707 0,0.896429 -0.216736,1.257944 -1.664404,2.703984 -2.518534,2.054446 -4.04101,5.340384 -4.1081,8.870263 0.06949,3.52988 1.589566,6.824633 4.105518,8.887892 1.450228,1.451923 1.666986,1.810496 1.666986,2.718681 0,0.914067 -0.216736,1.281454 -1.669561,2.739259 -2.515959,2.06326 -4.035853,5.358013 -4.102943,8.890833 0.0673,3.532819 1.586984,6.82463 4.102943,8.88789 1.452803,1.46956 1.669561,1.82226 1.669561,2.73926 0,2.27194 1.617954,4.11476 3.612653,4.11476 z"
       style="fill:#337cc0;fill-opacity:1;fill-rule:nonzero;stroke:none;stroke-width:0.35277775"
       id="path392-6"
       inkscape:connector-curvature="0" />
  </g>
</svg>
